<?xml version="1.0" encoding="UTF-8" standalone="no"?>
<!-- Created with Inkscape (http://www.inkscape.org/) -->

<svg
   width="210mm"
   height="297mm"
   viewBox="0 0 210 297"
   version="1.1"
   id="svg5"
   inkscape:version="1.1 (c4e8f9e, 2021-05-24)"
   sodipodi:docname="hello.svg"
   xmlns:inkscape="http://www.inkscape.org/namespaces/inkscape"
   xmlns:sodipodi="http://sodipodi.sourceforge.net/DTD/sodipodi-0.dtd"
   xmlns="http://www.w3.org/2000/svg"
   xmlns:svg="http://www.w3.org/2000/svg">
  <sodipodi:namedview
     id="namedview7"
     pagecolor="#ffffff"
     bordercolor="#666666"
     borderopacity="1.0"
     inkscape:pageshadow="2"
     inkscape:pageopacity="0.0"
     inkscape:pagecheckerboard="0"
     inkscape:document-units="mm"
     showgrid="false"
     inkscape:zoom="0.42850028"
     inkscape:cx="397.89939"
     inkscape:cy="561.25984"
     inkscape:window-width="1312"
     inkscape:window-height="667"
     inkscape:window-x="0"
     inkscape:window-y="23"
     inkscape:window-maximized="0"
     inkscape:current-layer="layer1" />
  <defs
     id="defs2" />
  <g
     inkscape:label="Layer 1"
     inkscape:groupmode="layer"
     id="layer1">
    <path
       style="fill:#000000;fill-opacity:1;fill-rule:nonzero;stroke:none;stroke-width:0.264583"
       id="path75"
       d="m 42.699762,65.085176 c 0.616231,5.719014 1.048216,11.454741 1.385888,17.19657 0.418856,7.919855 0.518975,15.851796 0.544218,23.781224 -0.0029,3.09171 -0.0037,6.1835 -0.06464,9.27471 -0.117663,0.60705 0.157303,1.36558 -0.12532,1.93092 -0.288898,0.43354 -0.689253,0.81796 -1.152305,1.08087 -1.6442,0.83977 4.462341,-2.49962 2.870544,-1.68069 0,0 -3.134791,2.47083 -3.134791,2.47083 v 0 c 1.445064,-0.47132 2.698369,-1.40628 3.965884,-2.23994 0.441426,-0.34597 0.860877,-0.79553 1.04434,-1.33218 0.112326,-0.66434 0.01363,-1.34416 0.03771,-2.01511 -0.04569,-3.06207 -0.06164,-6.12449 -0.11948,-9.18638 -0.139962,-7.915952 -0.325123,-15.831642 -0.657413,-23.742165 -0.316021,-5.77982 -0.730049,-11.552687 -1.079394,-17.329761 0,0 -3.515236,1.791102 -3.515236,1.791102 z" />
    <path
       style="fill:#000000;fill-opacity:1;fill-rule:nonzero;stroke:none;stroke-width:0.264583"
       id="path110"
       d="m 44.61067,92.546103 c 2.302621,0.04739 4.593672,-0.189942 6.885379,-0.375359 1.60646,-0.136285 3.217095,-0.204227 4.828649,-0.235125 0.998902,-0.01624 1.997969,-0.01254 2.996935,-0.0059 0.444714,0.0087 0.889389,0.0064 1.33414,0.0039 0.836428,-0.0067 1.672948,-0.0047 2.509383,7.93e-4 0.05205,0.0013 0.104105,0.0027 0.156157,0.004 0,0 3.223929,-2.342325 3.223929,-2.342325 v 0 c -0.05572,0.0013 -0.111437,0.0027 -0.167153,0.004 -0.836573,0.0053 -1.673241,0.0074 -2.509798,-3.9e-5 -0.445293,-0.0033 -0.89055,-0.0073 -1.335852,-0.0021 -1.008681,0.0027 -2.017376,0.0059 -3.026008,0.01714 -1.627915,0.02831 -3.255007,0.09498 -4.877236,0.239556 -2.2693,0.191945 -4.540099,0.466961 -6.821223,0.368512 0,0 -3.197302,2.322976 -3.197302,2.322976 z" />
    <path
       style="fill:#000000;fill-opacity:1;fill-rule:nonzero;stroke:none;stroke-width:0.264583"
       id="path112"
       d="m 62.452503,63.088173 c 0.05684,2.714995 0.0412,5.430943 0.0485,8.146388 0.04768,2.913364 -0.105431,5.831594 0.06692,8.741206 0.206666,2.366232 0.373446,4.734261 0.462328,7.107857 0.02724,1.746472 0.01635,3.478538 0.246091,5.211188 0.225584,1.44199 0.333912,2.895851 0.388501,4.353033 0.04231,1.5346 0.04349,3.069866 0.03926,4.604905 -0.0046,1.29959 -0.0072,2.59918 -0.0086,3.89878 0.0021,1.13828 -0.0051,2.27654 -0.0053,3.41482 0.02175,0.94514 -0.07694,1.89876 0.08654,2.83258 0.201745,0.81502 0.36087,1.63764 0.465688,2.47048 0.05728,0.53047 0.05567,1.06428 0.05916,1.59703 -0.0026,0.33816 -0.0066,0.6762 -0.0075,1.01435 -7.94e-4,0.13517 -0.0026,0.27033 -0.0049,0.40548 0,0 3.559209,-1.8124 3.559209,-1.8124 v 0 c -0.0016,-0.13371 -0.0028,-0.26742 -0.0026,-0.40114 0.0016,-0.33795 0.003,-0.67585 -0.0021,-1.01382 -0.0031,-0.54807 -0.01958,-1.0972 -0.08799,-1.64152 -0.127468,-0.83005 -0.295431,-1.65112 -0.48261,-2.46978 -0.128479,-0.91822 -0.02537,-1.85071 -0.06117,-2.77566 -5e-5,-1.1367 -0.007,-2.27337 -0.0035,-3.41008 5.3e-4,-1.29801 0.0016,-2.59603 -0.0016,-3.894045 -0.0051,-1.539407 0.0038,-3.079295 -0.04672,-4.618083 -0.05888,-1.467836 -0.176163,-2.93054 -0.409406,-4.382333 -0.219506,-1.716902 -0.194763,-3.439795 -0.252672,-5.167987 -0.09779,-2.372156 -0.285689,-4.737335 -0.485942,-7.102763 -0.150336,-2.900032 -0.04469,-5.807078 -0.0808,-8.709986 0.0073,-2.731923 -0.008,-5.464331 0.0485,-8.195812 0,0 -3.527425,1.797312 -3.527425,1.797312 z" />
    <path
       style="fill:#000000;fill-opacity:1;fill-rule:nonzero;stroke:none;stroke-width:0.264583"
       id="path141"
       d="m 73.566847,62.470709 c 0.151961,3.511264 -0.06037,7.01892 -0.20597,10.526067 -0.189968,4.437473 -0.276445,8.878326 -0.327993,13.319276 -0.03872,3.603908 -0.02891,7.208096 -0.0359,10.812155 -0.01672,2.370405 -0.01418,4.740913 -0.0294,7.111323 -0.0109,1.32384 -0.006,2.64776 -0.01434,3.9716 -0.09175,1.14097 0.200417,2.24279 0.387839,3.35771 0.137076,0.88323 0.194496,1.77526 0.21694,2.66789 -0.01114,0.43586 0.14591,0.87174 -0.225951,1.16733 0,0 3.653311,-1.58789 3.653311,-1.58789 v 0 c 0.185044,-0.44599 0.104161,-0.92013 0.101319,-1.39284 -0.04005,-0.90613 -0.110757,-1.81056 -0.25772,-2.70653 -0.189272,-1.09435 -0.450704,-2.17824 -0.355997,-3.29907 -0.0085,-1.31883 -0.0037,-2.63772 -0.01553,-3.95654 -0.01699,-2.35923 -0.01738,-4.718586 -0.03623,-7.07782 -0.0086,-3.59872 -0.0045,-7.197442 0.01288,-10.796132 0.03546,-4.432454 0.100595,-8.865354 0.306896,-13.293715 0.169971,-3.539132 0.357436,-7.07581 0.353266,-10.620126 0,0 -3.527425,1.797312 -3.527425,1.797312 z" />
    <path
       style="fill:#000000;fill-opacity:1;fill-rule:nonzero;stroke:none;stroke-width:0.264583"
       id="path143"
       d="m 76.192654,64.703999 c 2.668937,-0.305768 5.328624,-0.679553 8.002659,-0.942094 1.501767,-0.143023 3.009061,-0.213974 4.517117,-0.235876 0.620575,-0.0067 1.241156,-7.94e-4 1.861733,5.29e-4 0.628708,0.0051 1.257435,0.0016 1.886151,0.003 0.584907,5.29e-4 1.169829,5.29e-4 1.754727,0.0038 0.169151,0.0016 0.338236,0.0039 0.507381,0.0024 0,0 3.226171,-2.343975 3.226171,-2.343975 v 0 c -0.171289,-0.0016 -0.342517,0.0011 -0.513811,0.0024 -0.588047,0.0034 -1.176117,0.0034 -1.764172,0.0033 -0.627216,5.29e-4 -1.254427,-0.0037 -1.881643,-0.0044 -0.626967,-0.0041 -1.254064,-0.009 -1.880971,0.0024 -1.531858,0.03207 -3.063411,0.09944 -4.588838,0.249055 -2.658985,0.267311 -5.30339,0.663136 -7.964161,0.901102 0,0 -3.162343,2.358212 -3.162343,2.358212 z" />
    <path
       style="fill:#000000;fill-opacity:1;fill-rule:nonzero;stroke:none;stroke-width:0.264583"
       id="path145"
       d="m 74.248925,89.458783 c 2.728663,-0.251375 5.462232,-0.417642 8.200014,-0.526859 2.404951,-0.08534 4.811469,-0.100558 7.217672,-0.100714 0.884102,0.0046 1.768228,0.0058 2.652305,0.01455 0.350165,1.08e-4 0.70033,0.0024 1.050464,0.0073 0.02724,2.61e-4 0.05447,7.93e-4 0.08171,0.0013 0,0 3.233877,-2.34905 3.233877,-2.34905 v 0 c -0.02835,5.29e-4 -0.0567,0.0011 -0.08505,0.0013 -0.35483,0.0038 -0.709692,0.005 -1.064541,0.0036 -0.898403,0.0043 -1.796841,0.0021 -2.695204,0.01323 -2.426171,0.02143 -4.852472,0.05508 -7.277687,0.128233 -2.70877,0.09936 -5.415778,0.24611 -8.116253,0.484259 0,0 -3.197301,2.322976 -3.197301,2.322976 z" />
    <path
       style="fill:#000000;fill-opacity:1;fill-rule:nonzero;stroke:none;stroke-width:0.264583"
       id="path147"
       d="m 75.483851,114.15733 c 2.867756,-0.0389 5.735797,-0.0317 8.603724,-0.0275 2.036834,0.005 4.073646,0.0155 6.11048,0.0211 1.093566,-1e-4 2.18711,0.008 3.28067,0.009 0.634248,0.003 1.268502,10e-4 1.902748,0.005 0.27941,0.005 0.558808,0.002 0.838229,0.003 0,0 3.226438,-2.34415 3.226438,-2.34415 v 0 c -0.28239,8e-4 -0.564756,-0.002 -0.847135,0.003 -0.638501,0.004 -1.277009,0.001 -1.91551,0.005 -1.101846,0.001 -2.203682,0.009 -3.305534,0.009 -2.056215,0.006 -4.112414,0.0157 -6.168628,0.0211 -2.842745,0.004 -5.685613,0.0119 -8.52818,-0.0274 0,0 -3.197302,2.32297 -3.197302,2.32297 z" />
    <path
       style="fill:#000000;fill-opacity:1;fill-rule:nonzero;stroke:none;stroke-width:0.264583"
       id="path149"
       d="m 103.82256,63.088173 c 0.0761,3.439056 0.0645,6.879267 0.0739,10.318951 0.0122,4.166613 -0.008,8.333176 -0.0196,12.499752 -0.0132,2.904958 -0.0168,5.809991 -0.0157,8.714981 0.0103,2.991604 0.0131,5.983133 -0.003,8.974733 -0.008,1.68908 -0.0216,3.37813 -0.0305,5.0672 2.6e-4,0.6675 -0.0159,1.33503 -0.0145,2.00251 -0.10927,0.83016 0.48707,0.88955 1.22454,0.95702 1.9364,-0.0741 3.86322,-0.29889 5.79643,-0.43124 1.29424,-0.0863 2.59123,-0.11001 3.88789,-0.12231 0.84944,-0.0111 1.69886,10e-4 2.54827,0.004 0.43499,0.003 0.87,0.006 1.30499,0.004 0.15672,0.003 0.0877,0.001 0.20697,0.004 0,0 3.23035,-2.34675 3.23035,-2.34675 v 0 c -0.12557,0.002 -0.0531,10e-4 -0.2174,0.004 -0.43687,-0.002 -0.87375,2.4e-4 -1.31062,5.3e-4 -0.85604,-10e-4 -1.71209,0.007 -2.56813,0.005 -1.30956,0.009 -2.61936,0.0407 -3.92666,0.1215 -1.9162,0.13062 -3.82581,0.33684 -5.74225,0.46256 -0.85261,-0.0531 -0.92078,0.31675 -0.88893,-0.46906 0.001,-0.66255 -0.0148,-1.32515 -0.0145,-1.98772 -0.009,-1.6787 -0.0221,-3.35738 -0.0305,-5.03608 -0.0157,-2.990742 -0.0127,-5.981412 -0.003,-8.972156 0.001,-2.899645 -0.002,-5.79933 -0.0157,-8.698947 -0.0112,-4.159914 -0.0319,-8.319815 -0.0196,-12.479766 0.009,-3.464793 -0.002,-6.930093 0.0739,-10.394275 0,0 -3.52743,1.797312 -3.52743,1.797312 z" />
    <path
       style="fill:#000000;fill-opacity:1;fill-rule:nonzero;stroke:none;stroke-width:0.264583"
       id="path151"
       d="m 127.28618,62.470709 c 0.0557,2.961339 0.0593,5.92332 0.06,8.885081 0.003,3.640823 0.002,7.281699 -0.0125,10.922498 -0.12382,2.585386 0.16701,5.153935 0.36188,7.72696 0.15369,2.076537 0.20064,4.15856 0.22186,6.239992 0.11595,1.755248 -0.14734,3.486827 -0.38281,5.21927 -0.15783,1.17319 -0.21063,2.35679 -0.23987,3.53911 -0.0175,0.67915 -0.0179,1.35857 -0.0194,2.03789 -0.002,0.46267 0.004,0.92531 0.001,1.38798 -0.038,0.48441 0.0251,0.64524 0.55615,0.76882 1.77545,0.0504 3.55232,-0.0382 5.32526,0.0773 1.33121,0.13893 2.6525,0.35289 3.98536,0.4777 0.89513,0.0772 1.79356,0.0807 2.69121,0.0876 0.85253,0.003 1.70505,-0.002 2.55758,-10e-4 0.66162,-0.04 1.35026,0.0988 1.992,-0.1004 1.17919,-0.73167 2.35838,-1.46333 3.53757,-2.19499 0,0 -3.66336,1.55142 -3.66336,1.55142 v 0 c 1.0781,-0.6132 2.1562,-1.2264 3.2343,-1.83959 -0.56207,0.40188 -1.23314,0.2271 -1.89486,0.25384 -0.85287,0.003 -1.70575,0.003 -2.55861,0.004 -0.8928,5.3e-4 -1.78625,-0.003 -2.6777,-0.058 -1.34539,-0.10103 -2.67924,-0.29702 -4.01837,-0.45688 -1.75533,-0.16137 -3.52012,-0.0372 -5.28093,-0.10999 -0.0888,0.013 -0.19579,-0.0163 -0.26646,0.0391 -0.0684,0.0536 0.11198,0.33059 0.0271,-0.30641 -0.004,-0.46222 2.6e-4,-0.92444 -0.005,-1.38664 -0.005,-0.67267 -0.007,-1.34539 0.004,-2.01802 0.0293,-1.16728 0.0828,-2.33474 0.24077,-3.492926 0.22162,-1.746543 0.4436,-3.494394 0.33804,-5.259805 -0.0324,-2.085996 -0.0868,-4.172207 -0.25282,-6.252649 -0.20641,-2.557402 -0.47244,-5.112261 -0.38199,-7.68263 -0.0147,-3.636565 -0.0155,-7.273213 -0.0125,-10.9098 7.9e-4,-2.982153 0.005,-5.964512 0.06,-8.946245 0,0 -3.52742,1.797312 -3.52742,1.797312 z" />
    <path
       style="fill:#000000;fill-opacity:1;fill-rule:nonzero;stroke:none;stroke-width:0.264583"
       id="path157"
       d="m 170.36205,58.065915 c -2.12233,-0.17323 -4.23162,0.06794 -6.24039,0.763276 -3.97694,1.753817 -6.24029,3.579241 -8.51372,6.966913 -1.42743,2.382983 -2.31239,5.015904 -2.96702,7.700615 -0.71374,2.752757 -0.94411,5.59289 -1.31607,8.403934 -0.3494,2.466877 -0.45528,4.954754 -0.52006,7.442145 -0.0688,2.163643 -0.073,4.316494 0.14725,6.470205 0.13515,2.123678 0.4917,4.210117 1.04915,6.261377 0.66787,2.33387 1.83782,4.22352 3.50469,5.95882 1.78886,1.78673 3.76733,2.35642 6.19596,2.72766 3.21589,0.43275 6.38878,0.0441 9.44995,-0.97143 2.96848,-1.51752 6.17191,-2.95688 8.19324,-5.70979 0.72154,-0.98267 1.09385,-1.81255 1.6541,-2.89672 1.82643,-3.643704 2.80228,-7.621831 3.65162,-11.584654 0.63278,-3.830079 1.13552,-7.682735 1.4205,-11.554812 0.28774,-3.615192 -0.0285,-7.231628 -0.54473,-10.809427 -0.34856,-2.481736 -0.96075,-4.978559 -2.47827,-7.009249 -0.88435,-1.099966 -1.91205,-1.957139 -3.20408,-2.510256 -1.30926,-0.496064 -2.6958,-0.735089 -4.05974,-1.031727 -1.02042,-0.177408 -2.06101,-0.452149 -3.09772,-0.276828 -0.42466,0.115374 -0.85267,0.228317 -1.26319,0.388456 -0.3531,0.04125 0.0809,-0.0024 -0.13382,0.0039 0,0 -3.14634,2.464221 -3.14634,2.464221 v 0 c 0.17373,-0.109572 -0.27514,0.08586 0.10176,-0.06418 0.44667,-0.01646 0.8497,-0.305541 1.2894,-0.382119 0.99069,-0.334365 2.01265,-0.04915 3.01932,0.111969 1.34709,0.279276 2.70565,0.538898 4.01163,0.974664 1.24711,0.513861 2.25974,1.258038 3.11967,2.319438 1.5003,1.961327 2.09119,4.39202 2.44446,6.804216 0.51064,3.550277 0.81824,7.14348 0.51724,10.729261 -0.30022,3.850526 -0.76942,7.689686 -1.42038,11.496762 -0.85347,3.946956 -1.86521,7.89622 -3.72971,11.505015 -0.76693,1.41181 -1.50505,2.74619 -2.66811,3.87958 -0.37149,0.36203 -1.69435,1.02607 -1.17568,1.01952 0.74211,-0.009 1.29325,-0.73427 1.97412,-1.0296 0.50277,-0.21808 -0.95864,0.53136 -1.43796,0.79704 -3.00329,1.08432 -6.13177,1.50955 -9.31868,1.10435 -2.27401,-0.31855 -4.35612,-0.85109 -6.03955,-2.52528 -1.63743,-1.67966 -2.76977,-3.50583 -3.4085,-5.78564 -0.53105,-2.03731 -0.8698,-4.109148 -1.00945,-6.211683 -0.20959,-2.136934 -0.19388,-4.274886 -0.13696,-6.420675 0.0605,-2.472021 0.18628,-4.94334 0.51819,-7.395999 0.35903,-2.802665 0.61663,-5.629957 1.34451,-8.368905 0.66697,-2.648326 1.55671,-5.247114 3.02089,-7.572481 0.75701,-1.079347 1.49712,-2.063885 2.46697,-2.964842 0.30935,-0.287382 1.35991,-0.953489 0.95571,-0.831381 -0.86272,0.260627 -1.58747,0.853953 -2.38971,1.264592 -0.29056,0.148727 0.56951,-0.319099 0.85426,-0.47865 1.92997,-0.791829 3.99578,-1.029624 6.07489,-0.898118 0,0 3.24036,-2.273464 3.24036,-2.273464 z" />
  </g>
</svg>
